<mxfile host="app.diagrams.net" agent="Mozilla/5.0 (Windows NT 10.0; Win64; x64) AppleWebKit/537.36 (KHTML, like Gecko) Chrome/133.0.0.0 Safari/537.36" version="26.1.1">
  <diagram name="PÃ¡gina-1" id="mBQNFbkxyeFUBmhsXrNg">
    <mxGraphModel dx="481" dy="559" grid="1" gridSize="10" guides="1" tooltips="1" connect="1" arrows="1" fold="1" page="1" pageScale="1" pageWidth="827" pageHeight="1169" math="0" shadow="0">
      <root>
        <mxCell id="0" />
        <mxCell id="1" parent="0" />
        <mxCell id="uSX1GnxnvZQKvaPDF6ch-1" value="&lt;font style=&quot;vertical-align: inherit;&quot;&gt;&lt;font style=&quot;vertical-align: inherit;&quot;&gt;Animal&lt;/font&gt;&lt;/font&gt;" style="html=1;whiteSpace=wrap;labelBackgroundColor=none;fillColor=#21C0A5;strokeColor=#006658;fontColor=#5C5C5C;" vertex="1" parent="1">
          <mxGeometry x="190" y="250" width="110" height="50" as="geometry" />
        </mxCell>
        <mxCell id="uSX1GnxnvZQKvaPDF6ch-4" style="edgeStyle=orthogonalEdgeStyle;rounded=0;orthogonalLoop=1;jettySize=auto;html=1;exitX=0.5;exitY=0;exitDx=0;exitDy=0;labelBackgroundColor=none;strokeColor=#006658;fontColor=default;" edge="1" parent="1" source="uSX1GnxnvZQKvaPDF6ch-2">
          <mxGeometry relative="1" as="geometry">
            <mxPoint x="245" y="300" as="targetPoint" />
            <mxPoint x="245" y="380" as="sourcePoint" />
          </mxGeometry>
        </mxCell>
        <mxCell id="uSX1GnxnvZQKvaPDF6ch-13" value="" style="rounded=1;orthogonalLoop=1;jettySize=auto;html=1;startArrow=none;startFill=0;strokeColor=none;labelBackgroundColor=none;fontColor=default;" edge="1" parent="1" source="uSX1GnxnvZQKvaPDF6ch-2" target="uSX1GnxnvZQKvaPDF6ch-10">
          <mxGeometry relative="1" as="geometry" />
        </mxCell>
        <mxCell id="uSX1GnxnvZQKvaPDF6ch-2" value="&lt;font style=&quot;vertical-align: inherit;&quot;&gt;&lt;font style=&quot;vertical-align: inherit;&quot;&gt;&lt;font style=&quot;vertical-align: inherit;&quot;&gt;&lt;font style=&quot;vertical-align: inherit;&quot;&gt;Mamifero&lt;/font&gt;&lt;/font&gt;&lt;/font&gt;&lt;/font&gt;" style="html=1;whiteSpace=wrap;labelBackgroundColor=none;fillColor=#21C0A5;strokeColor=#006658;fontColor=#5C5C5C;" vertex="1" parent="1">
          <mxGeometry x="190" y="400" width="110" height="50" as="geometry" />
        </mxCell>
        <mxCell id="uSX1GnxnvZQKvaPDF6ch-6" value="&lt;font style=&quot;vertical-align: inherit;&quot;&gt;&lt;font style=&quot;vertical-align: inherit;&quot;&gt;&lt;font style=&quot;vertical-align: inherit;&quot;&gt;&lt;font style=&quot;vertical-align: inherit;&quot;&gt;Mamifero&lt;/font&gt;&lt;/font&gt;&lt;/font&gt;&lt;/font&gt;" style="html=1;whiteSpace=wrap;labelBackgroundColor=none;fillColor=#21C0A5;strokeColor=#006658;fontColor=#5C5C5C;" vertex="1" parent="1">
          <mxGeometry x="40" y="400" width="110" height="50" as="geometry" />
        </mxCell>
        <mxCell id="uSX1GnxnvZQKvaPDF6ch-7" value="&lt;font style=&quot;vertical-align: inherit;&quot;&gt;&lt;font style=&quot;vertical-align: inherit;&quot;&gt;&lt;font style=&quot;vertical-align: inherit;&quot;&gt;&lt;font style=&quot;vertical-align: inherit;&quot;&gt;Mamifero&lt;/font&gt;&lt;/font&gt;&lt;/font&gt;&lt;/font&gt;" style="html=1;whiteSpace=wrap;labelBackgroundColor=none;fillColor=#21C0A5;strokeColor=#006658;fontColor=#5C5C5C;" vertex="1" parent="1">
          <mxGeometry x="340" y="400" width="110" height="50" as="geometry" />
        </mxCell>
        <mxCell id="uSX1GnxnvZQKvaPDF6ch-8" style="rounded=0;orthogonalLoop=1;jettySize=auto;html=1;entryX=0.5;entryY=0;entryDx=0;entryDy=0;edgeStyle=orthogonalEdgeStyle;endArrow=none;startFill=0;labelBackgroundColor=none;strokeColor=#006658;fontColor=default;" edge="1" parent="1" target="uSX1GnxnvZQKvaPDF6ch-6">
          <mxGeometry relative="1" as="geometry">
            <mxPoint x="110" y="290" as="targetPoint" />
            <mxPoint x="250" y="321" as="sourcePoint" />
          </mxGeometry>
        </mxCell>
        <mxCell id="uSX1GnxnvZQKvaPDF6ch-9" style="rounded=0;orthogonalLoop=1;jettySize=auto;html=1;edgeStyle=orthogonalEdgeStyle;endArrow=none;startFill=0;entryX=0.5;entryY=0;entryDx=0;entryDy=0;labelBackgroundColor=none;strokeColor=#006658;fontColor=default;" edge="1" parent="1" target="uSX1GnxnvZQKvaPDF6ch-7">
          <mxGeometry relative="1" as="geometry">
            <mxPoint x="394" y="380" as="targetPoint" />
            <mxPoint x="244" y="320" as="sourcePoint" />
            <Array as="points">
              <mxPoint x="244" y="321" />
              <mxPoint x="390" y="321" />
              <mxPoint x="390" y="400" />
            </Array>
          </mxGeometry>
        </mxCell>
        <mxCell id="uSX1GnxnvZQKvaPDF6ch-10" value="&lt;font style=&quot;vertical-align: inherit;&quot;&gt;&lt;font style=&quot;vertical-align: inherit;&quot;&gt;&lt;font style=&quot;vertical-align: inherit;&quot;&gt;&lt;font style=&quot;vertical-align: inherit;&quot;&gt;Caballo&lt;/font&gt;&lt;/font&gt;&lt;/font&gt;&lt;/font&gt;" style="html=1;whiteSpace=wrap;labelBackgroundColor=none;fillColor=#21C0A5;strokeColor=#006658;fontColor=#5C5C5C;" vertex="1" parent="1">
          <mxGeometry x="190" y="500" width="110" height="50" as="geometry" />
        </mxCell>
        <mxCell id="uSX1GnxnvZQKvaPDF6ch-14" value="" style="edgeStyle=none;orthogonalLoop=1;jettySize=auto;html=1;rounded=0;endArrow=none;startFill=0;exitX=0.5;exitY=0;exitDx=0;exitDy=0;entryX=0.5;entryY=1;entryDx=0;entryDy=0;labelBackgroundColor=none;strokeColor=#006658;fontColor=default;" edge="1" parent="1" source="uSX1GnxnvZQKvaPDF6ch-10" target="uSX1GnxnvZQKvaPDF6ch-2">
          <mxGeometry width="80" relative="1" as="geometry">
            <mxPoint x="380" y="360" as="sourcePoint" />
            <mxPoint x="460" y="360" as="targetPoint" />
            <Array as="points" />
          </mxGeometry>
        </mxCell>
        <mxCell id="uSX1GnxnvZQKvaPDF6ch-15" value="&lt;h1 style=&quot;margin-top: 0px;&quot;&gt;&lt;font style=&quot;font-size: 12px;&quot;&gt;Modelado Sistema Animal.&lt;/font&gt;&lt;/h1&gt;&lt;div&gt;&lt;font style=&quot;font-size: 12px;&quot;&gt;Clasificar tipos de animales. Debe permitir heredar propiedades y comportamientos comunes desde la clase animal gral a clases especificas como mamifero, anfibio y reptil.Ademas subclases Canballo que heredan de Mamifero.&lt;/font&gt;&lt;/div&gt;" style="text;html=1;whiteSpace=wrap;overflow=hidden;rounded=0;fontColor=#5C5C5C;" vertex="1" parent="1">
          <mxGeometry y="90" width="180" height="180" as="geometry" />
        </mxCell>
        <mxCell id="uSX1GnxnvZQKvaPDF6ch-16" value="&lt;h1 style=&quot;margin-top: 0px;&quot;&gt;&lt;font style=&quot;font-size: 12px;&quot;&gt;Objetivos.&lt;/font&gt;&lt;/h1&gt;&lt;div&gt;&lt;font style=&quot;font-size: 13px;&quot;&gt;Identificar las carateristicas comunes de todos los animales.&lt;/font&gt;&lt;/div&gt;&lt;div&gt;&lt;font style=&quot;font-size: 13px;&quot;&gt;Especificar comportamientos y atributos en subclases segun el tipo de animal.&lt;/font&gt;&lt;/div&gt;&lt;div&gt;&lt;font style=&quot;font-size: 13px;&quot;&gt;Facilitar la extension del modelo paraincluir nuevos tipos.&lt;/font&gt;&lt;/div&gt;" style="text;html=1;whiteSpace=wrap;overflow=hidden;rounded=0;fontColor=#5C5C5C;" vertex="1" parent="1">
          <mxGeometry x="180" y="100" width="410" height="140" as="geometry" />
        </mxCell>
      </root>
    </mxGraphModel>
  </diagram>
</mxfile>
